<svg width="211" height="202" viewBox="0 0 211 202" xmlns="http://www.w3.org/2000/svg" xmlns:xlink="http://www.w3.org/1999/xlink"><svg width="13" height="15" viewBox="0 0 26 30" fill="#9b9b9b" id="euro" xmlns="http://www.w3.org/2000/svg"><path class="ast0" d="M21.3 23.3c-1.3 2.2-3.1 3.3-5.5 3.3-2.6 0-4.6-1-5.9-3.1-.8-1.2-1.4-2.7-1.7-4.4h10.2l.8-2.8H8v-1c0-.7 0-1.4.1-2.1h10.5l.8-2.8h-11c.3-1.7.9-3.1 1.7-4.2 1.5-2 3.4-3 5.8-3 1.9 0 3.5.5 4.5 1.6 1.1 1.1 1.8 2.5 2.2 4.4h3.2c-.2-2.4-1.1-4.6-2.8-6.5C21.3.8 19-.1 15.9-.1c-3.6 0-6.4 1.5-8.4 4.4C6.3 6 5.5 8.1 5 10.4H.8L0 13.3h4.6v3H.8L0 19.1h4.9c.5 3.4 1.7 6 3.5 7.9 1.9 2 4.3 3 7.1 3 3.2 0 5.8-1.2 7.7-3.7 1.6-2 2.5-4.5 2.8-7.5h-3.2c-.3 1.9-.8 3.4-1.5 4.5z"/></svg><svg id="eye" viewBox="0 0 24 15" width="24" height="15" x="13" y="15" xmlns="http://www.w3.org/2000/svg"><style>.bst0{fill:#9b9b9b}</style><path class="bst0" d="M12 1C7.9 1 4.1 3.3 1.3 7c-.3.3-.3.7 0 1 2.8 3.7 6.5 6 10.7 6s7.9-2.3 10.7-6c.2-.3.2-.7 0-1-2.8-3.7-6.6-6-10.7-6zm.3 11.1c-2.7.1-5-2.1-4.8-4.8.1-2.3 2-4.2 4.3-4.3 2.7-.1 5 2.1 4.8 4.8-.2 2.3-2 4.1-4.3 4.3z"/><path class="bst0" d="M12.2 9.9c-1.5.1-2.7-1.2-2.6-2.6C9.7 6 10.7 5 11.9 5c1.5-.1 2.7 1.2 2.6 2.6-.1 1.3-1.1 2.3-2.3 2.3z"/></svg><svg fill="#1B4D7C" viewBox="0 0 19 22.8" width="19" height="22.8" id="form" x="37" y="30" xmlns="http://www.w3.org/2000/svg"><path class="cst0" d="M1 .9v21h17V.9H1zm5 17H5v-1h1v1zm0-3H5v-1h1v1zm0-3H5v-1h1v1zm8 6H8v-1h6v1zm0-3H8v-1h6v1zm0-3H8v-1h6v1zm0-5H5v-1h9v1z"/></svg><svg width="21" height="19" viewBox="0 0 22 20" fill="#D0D3D4" id="house" x="56" y="53" xmlns="http://www.w3.org/2000/svg"><path class="dst0" d="M11 1L1 10h2v9h6v-7h4v7h6v-9h2"/></svg><svg width="15" height="13" viewBox="0 0 22 20" fill="#00b22d" id="house-footer" x="77" y="72" xmlns="http://www.w3.org/2000/svg"><path class="est0" d="M11 1L1 10h2v9h6v-7h4v7h6v-9h2"/></svg><svg width="20" height="15" fill="#D0D3D4" viewBox="0 0 22 17" id="mail" x="92" y="85" xmlns="http://www.w3.org/2000/svg"><path class="fst0" d="M20 1l-9 7-9-7z"/><path class="fst0" d="M2 3l8 6h2l8-6h1v13H1V3h1"/></svg><svg id="plus" viewBox="0 0 18 18" width="18" height="18" x="112" y="100" xmlns="http://www.w3.org/2000/svg"><style>.gst0{fill:#1b4d7c}</style><path class="gst0" d="M9 1C4.6 1 1 4.6 1 9s3.6 8 8 8 8-3.6 8-8-3.6-8-8-8zm4 9h-3v3H8v-3H5V8h3V5h2v3h3v2z"/></svg><svg id="resume" viewBox="0 0 19 22.8" width="19" height="22.8" x="130" y="118" xmlns="http://www.w3.org/2000/svg"><style>.hst0{fill:#00b22d}</style><path class="hst0" d="M1 .9v21h17V.9H1zm4.5 5.9v-.5c-.1 0-.4-.2-.5-.5 0 0-.2-.1-.2-.4 0-.1.1-.3.1-.3-.2-.7-.1-1.5 1-1.5.3 0 .5.2.5.3.7 0 .5 1 .4 1.3 0 0 .1.1.1.3 0 .2-.2.3-.2.3 0 .3-.2.5-.3.5v.5c.2.5 1.5.4 1.6 1.4H3.8c.1-1 1.5-.9 1.7-1.4zm5.5 11H4.3c-.3 0-.5-.2-.5-.5s.2-.5.5-.5H11c.3 0 .5.2.5.5s-.3.5-.5.5zm-7.2-3.2c0-.3.2-.5.5-.5h5.2c.3 0 .5.2.5.5s-.2.5-.5.5H4.3c-.3 0-.5-.2-.5-.5zm7.2-2.3H4.3c-.3 0-.5-.2-.5-.5s.2-.4.5-.4H11c.3 0 .5.2.5.5s-.3.4-.5.4zm3.7 5.5h-1.5c-.3 0-.5-.2-.5-.5s.2-.5.5-.5h1.5c.3 0 .5.2.5.5s-.2.5-.5.5zm0-2.7h-1.5c-.3 0-.5-.2-.5-.5s.2-.5.5-.5h1.5c.3 0 .5.2.5.5s-.2.5-.5.5zm0-2.8h-1.5c-.3 0-.5-.2-.5-.5s.2-.5.5-.5h1.5c.3 0 .5.2.5.5s-.2.5-.5.5zm0-4.6h-3.8c-.3 0-.5-.2-.5-.5s.2-.5.5-.5h3.8c.3 0 .5.2.5.5 0 .4-.2.5-.5.5zm0-2.2h-3.8c-.3 0-.5-.2-.5-.5s.2-.5.5-.5h3.8c.3 0 .5.2.5.5s-.2.5-.5.5z"/></svg><svg viewBox="0 0 26 26" width="22" height="22" fill="#fff" id="search" x="149" y="141" xmlns="http://www.w3.org/2000/svg"><path d="M10 .188A9.81 9.81 0 0 0 .187 10 9.81 9.81 0 0 0 10 19.813a9.77 9.77 0 0 0 6.063-2.125l.875.875a1.843 1.843 0 0 0 .343 2.156l4.594 4.625a1.837 1.837 0 0 0 2.594 0l.875-.875a1.837 1.837 0 0 0 0-2.594l-4.625-4.594a1.819 1.819 0 0 0-2.157-.312l-.875-.875A9.81 9.81 0 0 0 10 .188zM10 2a8 8 0 1 1 0 16 8 8 0 0 1 0-16zM4.937 7.469a5.457 5.457 0 0 0-.812 2.875 5.46 5.46 0 0 0 5.469 5.469 5.532 5.532 0 0 0 3.156-1 6.799 6.799 0 0 1-.75.03 7.045 7.045 0 0 1-7.063-7.062c0-.105-.003-.207 0-.312z"/></svg><svg viewBox="0 0 26 26" width="22" height="22" fill="#1b4d7c" id="search-header" x="171" y="163" xmlns="http://www.w3.org/2000/svg"><path d="M10 .188A9.81 9.81 0 0 0 .187 10 9.81 9.81 0 0 0 10 19.813a9.77 9.77 0 0 0 6.063-2.125l.875.875a1.843 1.843 0 0 0 .343 2.156l4.594 4.625a1.837 1.837 0 0 0 2.594 0l.875-.875a1.837 1.837 0 0 0 0-2.594l-4.625-4.594a1.819 1.819 0 0 0-2.157-.312l-.875-.875A9.81 9.81 0 0 0 10 .188zM10 2a8 8 0 1 1 0 16 8 8 0 0 1 0-16zM4.937 7.469a5.457 5.457 0 0 0-.812 2.875 5.46 5.46 0 0 0 5.469 5.469 5.532 5.532 0 0 0 3.156-1 6.799 6.799 0 0 1-.75.03 7.045 7.045 0 0 1-7.063-7.062c0-.105-.003-.207 0-.312z"/></svg><svg fill="#FFC100" viewBox="0 0 18 17" width="18" height="17" id="star" x="193" y="185" xmlns="http://www.w3.org/2000/svg"><path class="kst0" d="M9.4 1l2.7 4.7 5.4 1-3.8 3.9.7 5.3-5-2.3-5 2.3.7-5.3-3.7-3.9 5.4-1L9.4 1"/></svg></svg>